<?xml version="1.0" encoding="UTF-8" standalone="no"?>
<!DOCTYPE svg PUBLIC "-//W3C//DTD SVG 1.1//EN"
 "http://www.w3.org/Graphics/SVG/1.1/DTD/svg11.dtd">
<!-- Generated by graphviz version 2.40.1 (20161225.0304)
 -->
<!-- Title: dependencies Pages: 1 -->
<svg width="1725pt" height="284pt"
 viewBox="0.00 0.00 1725.00 284.00" xmlns="http://www.w3.org/2000/svg" xmlns:xlink="http://www.w3.org/1999/xlink">
<g id="graph0" class="graph" transform="scale(1 1) rotate(0) translate(4 280)">
<title>dependencies</title>
<polygon fill="#ffffff" stroke="transparent" points="-4,4 -4,-280 1721,-280 1721,4 -4,4"/>
<text text-anchor="start" x="837.5091" y="-42.4" font-family="sans-serif" font-weight="bold" font-size="14.00" fill="#000000">Legend</text>
<polygon fill="#ffffb3" stroke="transparent" points="624.5,-10 624.5,-30 644.5,-30 644.5,-10 624.5,-10"/>
<text text-anchor="start" x="648.129" y="-15.4" font-family="sans-serif" font-size="14.00" fill="#000000"> &#160;Declarations</text>
<polygon fill="#8dd3c7" stroke="transparent" points="737.5,-10 737.5,-30 757.5,-30 757.5,-10 737.5,-10"/>
<text text-anchor="start" x="761.2251" y="-15.4" font-family="sans-serif" font-size="14.00" fill="#000000"> &#160;Module</text>
<polygon fill="#80b1d3" stroke="transparent" points="823.5,-10 823.5,-30 843.5,-30 843.5,-10 823.5,-10"/>
<text text-anchor="start" x="847.2812" y="-15.4" font-family="sans-serif" font-size="14.00" fill="#000000"> &#160;Bootstrap</text>
<polygon fill="#fdb462" stroke="transparent" points="920.5,-10 920.5,-30 940.5,-30 940.5,-10 920.5,-10"/>
<text text-anchor="start" x="944.1732" y="-15.4" font-family="sans-serif" font-size="14.00" fill="#000000"> &#160;Providers</text>
<polygon fill="#fb8072" stroke="transparent" points="1016.5,-10 1016.5,-30 1036.5,-30 1036.5,-10 1016.5,-10"/>
<text text-anchor="start" x="1040.2258" y="-15.4" font-family="sans-serif" font-size="14.00" fill="#000000"> &#160;Exports</text>
<g id="clust1" class="cluster">
<title>cluster_AppModule</title>
<polygon fill="none" stroke="#000000" stroke-dasharray="1,5" points="8,-70 8,-268 1709,-268 1709,-70 8,-70"/>
</g>
<g id="clust2" class="cluster">
<title>cluster_AppModule_declarations</title>
<polygon fill="none" stroke="#000000" points="452,-78 452,-130 1701,-130 1701,-78 452,-78"/>
</g>
<g id="clust12" class="cluster">
<title>cluster_AppModule_imports</title>
<polygon fill="none" stroke="#000000" points="300,-78 300,-130 444,-130 444,-78 300,-78"/>
</g>
<g id="clust14" class="cluster">
<title>cluster_AppModule_bootstrap</title>
<polygon fill="none" stroke="#000000" points="794,-208 794,-260 918,-260 918,-208 794,-208"/>
</g>
<g id="clust15" class="cluster">
<title>cluster_AppModule_providers</title>
<polygon fill="none" stroke="#000000" points="16,-78 16,-130 292,-130 292,-78 16,-78"/>
</g>
<!-- AnswerComponent -->
<g id="node1" class="node">
<title>AnswerComponent</title>
<polygon fill="#ffffb3" stroke="#000000" points="1693.3655,-122 1568.6345,-122 1568.6345,-86 1693.3655,-86 1693.3655,-122"/>
<text text-anchor="middle" x="1631" y="-99.8" font-family="Times,serif" font-size="14.00" fill="#000000">AnswerComponent</text>
</g>
<!-- AppModule -->
<g id="node10" class="node">
<title>AppModule</title>
<polygon fill="#8dd3c7" stroke="#000000" points="897.6571,-187 894.6571,-191 873.6571,-191 870.6571,-187 814.3429,-187 814.3429,-151 897.6571,-151 897.6571,-187"/>
<text text-anchor="middle" x="856" y="-164.8" font-family="Times,serif" font-size="14.00" fill="#000000">AppModule</text>
</g>
<!-- AnswerComponent&#45;&gt;AppModule -->
<g id="edge1" class="edge">
<title>AnswerComponent&#45;&gt;AppModule</title>
<path fill="none" stroke="#000000" d="M1631,-122.2479C1631,-145.0179 1631,-181 1631,-181 1631,-181 907.6674,-181 907.6674,-181"/>
<polygon fill="#000000" stroke="#000000" points="907.6674,-177.5001 897.6674,-181 907.6673,-184.5001 907.6674,-177.5001"/>
</g>
<!-- AppComponent -->
<g id="node2" class="node">
<title>AppComponent</title>
<polygon fill="#ffffb3" stroke="#000000" points="1550.9399,-122 1445.0601,-122 1445.0601,-86 1550.9399,-86 1550.9399,-122"/>
<text text-anchor="middle" x="1498" y="-99.8" font-family="Times,serif" font-size="14.00" fill="#000000">AppComponent</text>
</g>
<!-- AppComponent&#45;&gt;AppModule -->
<g id="edge2" class="edge">
<title>AppComponent&#45;&gt;AppModule</title>
<path fill="none" stroke="#000000" d="M1498,-122.2843C1498,-143.3211 1498,-175 1498,-175 1498,-175 908.1234,-175 908.1234,-175"/>
<polygon fill="#000000" stroke="#000000" points="908.1234,-171.5001 898.1234,-175 908.1234,-178.5001 908.1234,-171.5001"/>
</g>
<!-- GameComponent -->
<g id="node3" class="node">
<title>GameComponent</title>
<polygon fill="#ffffb3" stroke="#000000" points="1427.2591,-122 1312.7409,-122 1312.7409,-86 1427.2591,-86 1427.2591,-122"/>
<text text-anchor="middle" x="1370" y="-99.8" font-family="Times,serif" font-size="14.00" fill="#000000">GameComponent</text>
</g>
<!-- GameComponent&#45;&gt;AppModule -->
<g id="edge3" class="edge">
<title>GameComponent&#45;&gt;AppModule</title>
<path fill="none" stroke="#000000" d="M1370,-122.1061C1370,-141.3391 1370,-169 1370,-169 1370,-169 908.0628,-169 908.0628,-169"/>
<polygon fill="#000000" stroke="#000000" points="908.0628,-165.5001 898.0628,-169 908.0627,-172.5001 908.0628,-165.5001"/>
</g>
<!-- LeaderboardComponent -->
<g id="node4" class="node">
<title>LeaderboardComponent</title>
<polygon fill="#ffffb3" stroke="#000000" points="1295.0646,-122 1142.9354,-122 1142.9354,-86 1295.0646,-86 1295.0646,-122"/>
<text text-anchor="middle" x="1219" y="-99.8" font-family="Times,serif" font-size="14.00" fill="#000000">LeaderboardComponent</text>
</g>
<!-- LeaderboardComponent&#45;&gt;AppModule -->
<g id="edge4" class="edge">
<title>LeaderboardComponent&#45;&gt;AppModule</title>
<path fill="none" stroke="#000000" d="M1219,-122.0225C1219,-139.3734 1219,-163 1219,-163 1219,-163 907.9953,-163 907.9953,-163"/>
<polygon fill="#000000" stroke="#000000" points="907.9954,-159.5001 897.9953,-163 907.9953,-166.5001 907.9954,-159.5001"/>
</g>
<!-- OptionComponent -->
<g id="node5" class="node">
<title>OptionComponent</title>
<polygon fill="#ffffb3" stroke="#000000" points="1125.2204,-122 1004.7796,-122 1004.7796,-86 1125.2204,-86 1125.2204,-122"/>
<text text-anchor="middle" x="1065" y="-99.8" font-family="Times,serif" font-size="14.00" fill="#000000">OptionComponent</text>
</g>
<!-- OptionComponent&#45;&gt;AppModule -->
<g id="edge5" class="edge">
<title>OptionComponent&#45;&gt;AppModule</title>
<path fill="none" stroke="#000000" d="M1065,-122.2396C1065,-137.5706 1065,-157 1065,-157 1065,-157 907.792,-157 907.792,-157"/>
<polygon fill="#000000" stroke="#000000" points="907.792,-153.5001 897.792,-157 907.7919,-160.5001 907.792,-153.5001"/>
</g>
<!-- PhaserComponent -->
<g id="node6" class="node">
<title>PhaserComponent</title>
<polygon fill="#ffffb3" stroke="#000000" points="987.1499,-122 868.8501,-122 868.8501,-86 987.1499,-86 987.1499,-122"/>
<text text-anchor="middle" x="928" y="-99.8" font-family="Times,serif" font-size="14.00" fill="#000000">PhaserComponent</text>
</g>
<!-- PhaserComponent&#45;&gt;AppModule -->
<g id="edge6" class="edge">
<title>PhaserComponent&#45;&gt;AppModule</title>
<path fill="none" stroke="#000000" d="M883.2518,-122.1061C883.2518,-122.1061 883.2518,-140.991 883.2518,-140.991"/>
<polygon fill="#000000" stroke="#000000" points="879.7518,-140.9909 883.2518,-150.991 886.7518,-140.991 879.7518,-140.9909"/>
</g>
<!-- QuestionComponent -->
<g id="node7" class="node">
<title>QuestionComponent</title>
<polygon fill="#ffffb3" stroke="#000000" points="850.8795,-122 719.1205,-122 719.1205,-86 850.8795,-86 850.8795,-122"/>
<text text-anchor="middle" x="785" y="-99.8" font-family="Times,serif" font-size="14.00" fill="#000000">QuestionComponent</text>
</g>
<!-- QuestionComponent&#45;&gt;AppModule -->
<g id="edge7" class="edge">
<title>QuestionComponent&#45;&gt;AppModule</title>
<path fill="none" stroke="#000000" d="M832.5558,-122.1061C832.5558,-122.1061 832.5558,-140.991 832.5558,-140.991"/>
<polygon fill="#000000" stroke="#000000" points="829.0558,-140.9909 832.5558,-150.991 836.0558,-140.991 829.0558,-140.9909"/>
</g>
<!-- QuizComponent -->
<g id="node8" class="node">
<title>QuizComponent</title>
<polygon fill="#ffffb3" stroke="#000000" points="701.0452,-122 592.9548,-122 592.9548,-86 701.0452,-86 701.0452,-122"/>
<text text-anchor="middle" x="647" y="-99.8" font-family="Times,serif" font-size="14.00" fill="#000000">QuizComponent</text>
</g>
<!-- QuizComponent&#45;&gt;AppModule -->
<g id="edge8" class="edge">
<title>QuizComponent&#45;&gt;AppModule</title>
<path fill="none" stroke="#000000" d="M647,-122.2396C647,-137.5706 647,-157 647,-157 647,-157 804.208,-157 804.208,-157"/>
<polygon fill="#000000" stroke="#000000" points="804.2081,-160.5001 814.208,-157 804.208,-153.5001 804.2081,-160.5001"/>
</g>
<!-- SpaceComponent -->
<g id="node9" class="node">
<title>SpaceComponent</title>
<polygon fill="#ffffb3" stroke="#000000" points="574.2591,-122 459.7409,-122 459.7409,-86 574.2591,-86 574.2591,-122"/>
<text text-anchor="middle" x="517" y="-99.8" font-family="Times,serif" font-size="14.00" fill="#000000">SpaceComponent</text>
</g>
<!-- SpaceComponent&#45;&gt;AppModule -->
<g id="edge9" class="edge">
<title>SpaceComponent&#45;&gt;AppModule</title>
<path fill="none" stroke="#000000" d="M517,-122.0225C517,-139.3734 517,-163 517,-163 517,-163 804.0919,-163 804.0919,-163"/>
<polygon fill="#000000" stroke="#000000" points="804.092,-166.5001 814.0919,-163 804.0919,-159.5001 804.092,-166.5001"/>
</g>
<!-- AppComponent  -->
<g id="node12" class="node">
<title>AppComponent </title>
<polygon fill="#80b1d3" stroke="#000000" points="910.439,-252 801.561,-252 801.561,-216 910.439,-216 910.439,-252"/>
<text text-anchor="middle" x="856" y="-229.8" font-family="Times,serif" font-size="14.00" fill="#000000">AppComponent </text>
</g>
<!-- AppModule&#45;&gt;AppComponent  -->
<g id="edge11" class="edge">
<title>AppModule&#45;&gt;AppComponent </title>
<path fill="none" stroke="#000000" stroke-dasharray="1,5" d="M856,-187.1061C856,-187.1061 856,-205.991 856,-205.991"/>
<polygon fill="#000000" stroke="#000000" points="852.5001,-205.9909 856,-215.991 859.5001,-205.991 852.5001,-205.9909"/>
</g>
<!-- AppRoutingModule -->
<g id="node11" class="node">
<title>AppRoutingModule</title>
<polygon fill="#8dd3c7" stroke="#000000" points="436.2744,-122 433.2744,-126 412.2744,-126 409.2744,-122 307.7256,-122 307.7256,-86 436.2744,-86 436.2744,-122"/>
<text text-anchor="middle" x="372" y="-99.8" font-family="Times,serif" font-size="14.00" fill="#000000">AppRoutingModule</text>
</g>
<!-- AppRoutingModule&#45;&gt;AppModule -->
<g id="edge10" class="edge">
<title>AppRoutingModule&#45;&gt;AppModule</title>
<path fill="none" stroke="#000000" d="M372,-122.1061C372,-141.3391 372,-169 372,-169 372,-169 804.3155,-169 804.3155,-169"/>
<polygon fill="#000000" stroke="#000000" points="804.3156,-172.5001 814.3155,-169 804.3155,-165.5001 804.3156,-172.5001"/>
</g>
<!-- GameService -->
<g id="node13" class="node">
<title>GameService</title>
<ellipse fill="#fdb462" stroke="#000000" cx="221" cy="-104" rx="63.0977" ry="18"/>
<text text-anchor="middle" x="221" y="-99.8" font-family="Times,serif" font-size="14.00" fill="#000000">GameService</text>
</g>
<!-- GameService&#45;&gt;AppModule -->
<g id="edge12" class="edge">
<title>GameService&#45;&gt;AppModule</title>
<path fill="none" stroke="#000000" d="M221,-122.2843C221,-143.3211 221,-175 221,-175 221,-175 804.3359,-175 804.3359,-175"/>
<polygon fill="#000000" stroke="#000000" points="804.3359,-178.5001 814.3359,-175 804.3358,-171.5001 804.3359,-178.5001"/>
</g>
<!-- UserService -->
<g id="node14" class="node">
<title>UserService</title>
<ellipse fill="#fdb462" stroke="#000000" cx="82" cy="-104" rx="58.4415" ry="18"/>
<text text-anchor="middle" x="82" y="-99.8" font-family="Times,serif" font-size="14.00" fill="#000000">UserService</text>
</g>
<!-- UserService&#45;&gt;AppModule -->
<g id="edge13" class="edge">
<title>UserService&#45;&gt;AppModule</title>
<path fill="none" stroke="#000000" d="M82,-122.2479C82,-145.0179 82,-181 82,-181 82,-181 804.112,-181 804.112,-181"/>
<polygon fill="#000000" stroke="#000000" points="804.112,-184.5001 814.112,-181 804.1119,-177.5001 804.112,-184.5001"/>
</g>
</g>
</svg>
